# xmcd
#
# Track frame offsets: 
#        150
#        28443
#        51916
#        80341
#        104872
#        125280
#        143737
#        173556
#        194709
#        221066
#
# Disc length: 3344 seconds
#
# Revision: 0
# Processed by: cddbd v1.5.1PL0 Copyright (c) Steve Scherf et al.
# Submitted via: ExactAudioCopy v0.95a5
#
DISCID=990d0e0a
DTITLE=Danny Perdew - My Mule Named Whiskey
DYEAR=2003
DGENRE=Contemporary Christian
TTITLE0=I Went To Calvary
TTITLE1=Salvation's Love Song
TTITLE2=Whiskey
TTITLE3=Another Rainy Day
TTITLE4=A Ship Without A Anchor
TTITLE5=Circuit Rider
TTITLE6=Somebody Told Me
TTITLE7=He's Been There All The Way
TTITLE8=Come Quickly Lord Jesus
TTITLE9=You Must Hid The World
EXTD=
EXTT0=
EXTT1=
EXTT2=
EXTT3=
EXTT4=
EXTT5=
EXTT6=
EXTT7=
EXTT8=
EXTT9=
PLAYORDER=
